{"accessors" : [{"bufferView" : 0, "byteOffset" : 0, "componentType" : 5125, "count" : 103440, "type" : "SCALAR", "max" : [103439], "min" : [0]}, {"bufferView" : 1, "byteOffset" : 0, "componentType" : 5126, "count" : 103440, "type" : "VEC3", "max" : [97.34236907958984, 180.3433380126953, 20.622854232788086], "min" : [-97.34261322021484, -0.13015511631965637, -15.80409049987793]}, {"bufferView" : 1, "byteOffset" : 12, "componentType" : 5126, "count" : 103440, "type" : "VEC3", "max" : [0.9999964237213135, 0.9998319149017334, 0.9999743700027466], "min" : [-0.9999964237213135, -0.9999901652336121, -0.9999600052833557]}, {"bufferView" : 1, "byteOffset" : 24, "componentType" : 5126, "count" : 103440, "type" : "VEC2", "max" : [0.9965193867683411, -0.003100314177572727], "min" : [0.0035705040208995342, -0.9989066123962402]}, {"bufferView" : 0, "byteOffset" : 413760, "componentType" : 5123, "count" : 62520, "type" : "SCALAR", "max" : [62519], "min" : [0]}, {"bufferView" : 2, "byteOffset" : 0, "componentType" : 5126, "count" : 62520, "type" : "VEC3", "max" : [94.52722930908203, 159.71926879882812, 14.214861869812012], "min" : [-94.52747344970703, 0.6489618420600891, -13.345479965209961]}, {"bufferView" : 2, "byteOffset" : 12, "componentType" : 5126, "count" : 62520, "type" : "VEC3", "max" : [1.0000044107437134, 1.0000044107437134, 1.0000044107437134], "min" : [-1.0000044107437134, -1.0000044107437134, -1.0000044107437134]}, {"bufferView" : 2, "byteOffset" : 24, "componentType" : 5126, "count" : 62520, "type" : "VEC2", "max" : [1, -0], "min" : [0, -1]}], "asset" : {"generator" : "Aspose.3D 20.7.1", "version" : "2.0"}, "buffers" : [{"uri" : "buffer.bin", "byteLength" : 5849532}], "bufferViews" : [{"buffer" : 0, "byteOffset" : 0, "byteLength" : 538800, "target" : 34963}, {"buffer" : 0, "byteOffset" : 538804, "byteLength" : 3310080, "byteStride" : 32, "target" : 34962}, {"buffer" : 0, "byteOffset" : 3848888, "byteLength" : 2000640, "byteStride" : 32, "target" : 34962}], "materials" : [{"pbrMetallicRoughness" : {"baseColorFactor" : [0.09657000750303268, 0.42161980271339417, 0.5220000147819519, 1], "metallicFactor" : 0, "roughnessFactor" : 0}, "emissiveFactor" : [0, 0, 0], "alphaMode" : "OPAQUE", "doubleSided" : false}, {"pbrMetallicRoughness" : {"baseColorFactor" : [0.15355153381824493, 0.21289387345314026, 0.2222171425819397, 1], "metallicFactor" : 0, "roughnessFactor" : 0}, "emissiveFactor" : [0, 0, 0], "alphaMode" : "OPAQUE", "doubleSided" : false}], "meshes" : [{"primitives" : [{"attributes" : {"POSITION" : 1, "NORMAL" : 2, "TEXCOORD_0" : 3}, "indices" : 0, "material" : 0, "mode" : 4}]}, {"primitives" : [{"attributes" : {"POSITION" : 5, "NORMAL" : 6, "TEXCOORD_0" : 7}, "indices" : 4, "material" : 1, "mode" : 4}]}], "nodes" : [{"mesh" : 0, "name" : "Alpha_Surface"}, {"mesh" : 1, "name" : "Alpha_Joints"}], "scene" : 0, "scenes" : [{"nodes" : [0, 1]}]}